<svg width="622" height="738" viewBox="0 0 622 738" fill="none" xmlns="http://www.w3.org/2000/svg">
<rect width="622" height="738" transform="matrix(-1 0 0 1 622 0)" fill="#FFA800"/>
<path d="M424.173 142.143C535.653 142.143 602.313 358.69 622 398L622 0L143.768 0C115.584 25.4361 114.687 222.725 183.98 271.817C274.277 335.789 315.386 142.143 424.173 142.143Z" fill="#5200FF"/>
<path d="M52.0582 522.086C0.996326 522.086 6.61225e-06 403.203 0 375.939L0 738H251.573C242.482 738 203.874 734.316 203.874 665.661C203.874 590.385 232.768 588.916 232.768 482.428C232.768 375.939 216.328 326 170.621 326C104.615 326 103.12 522.086 52.0582 522.086Z" fill="#5200FF" fill-opacity="0.8"/>
<path d="M574.656 522.086C621.094 522.086 622 403.203 622 375.939L622 738H393.207C401.475 738 436.587 734.316 436.587 665.661C436.587 590.385 410.31 588.916 410.31 482.428C410.31 375.939 425.261 326 466.829 326C526.858 326 528.218 522.086 574.656 522.086Z" fill="#79FF38" fill-opacity="0.55"/>
</svg>
