<svg width="569" height="670" viewBox="0 0 569 670" fill="none" xmlns="http://www.w3.org/2000/svg">
<rect width="569" height="670" transform="matrix(-1 0 0 1 569 0)" fill="#FFD800"/>
<path d="M388.002 60C489.998 60 550.988 151.407 569 168V0L131.452 0C105.666 10.7368 104.844 94.0147 168.243 114.737C250.858 141.74 288.47 60 388.002 60Z" fill="#004C5C"/>
<path d="M47.6224 473.98C0.91143 473.98 6.04882e-06 366.051 0 341.3L0 670H230.137C221.82 670 186.502 666.655 186.502 604.327C186.502 535.986 212.934 534.653 212.934 437.976C212.934 341.3 197.895 295.962 156.083 295.962C95.7005 295.962 94.3334 473.98 47.6224 473.98Z" fill="#FF1E54"/>
<path d="M518.716 546.845C568.038 546.845 569 479.036 569 463.485V670H326C334.782 670 372.074 667.899 372.074 628.739C372.074 585.802 344.165 584.964 344.165 524.225C344.165 463.485 360.044 435 404.193 435C467.951 435 469.394 546.845 518.716 546.845Z" fill="#FFA800"/>
</svg>
