<svg width="661" height="670" viewBox="0 0 661 670" fill="none" xmlns="http://www.w3.org/2000/svg">
<rect width="661" height="670" transform="matrix(-1 0 0 1 661 0)" fill="#FFA800"/>
<path d="M450.769 129.046C569.239 129.046 640.079 325.64 661 361.328L661 0L152.783 0C122.832 23.0924 121.878 202.203 195.516 246.772C291.474 304.849 335.161 129.046 450.769 129.046Z" fill="#1AADC1"/>
<path d="M55.3223 473.98C1.0588 473.98 7.02684e-06 366.051 0 341.3L0 670H267.347C257.686 670 216.657 666.655 216.657 604.327C216.657 535.986 247.362 534.653 247.362 437.976C247.362 341.3 229.892 295.962 181.32 295.962C111.174 295.962 109.586 473.98 55.3223 473.98Z" fill="#FF541E"/>
<path d="M596.382 474C659.763 474 661 366.082 661 341.333L661 670H348.731C360.016 670 407.939 666.656 407.939 604.333C407.939 536 372.074 534.667 372.074 438C372.074 341.333 392.48 296 449.214 296C531.146 296 533.001 474 596.382 474Z" fill="#FFF8E5" fill-opacity="0.55"/>
</svg>
