<svg width="664" height="743" viewBox="0 0 664 743" fill="none" xmlns="http://www.w3.org/2000/svg">
<rect width="664" height="743" rx="40" transform="matrix(-1 0 0 1 664 0)" fill="#FFA800"/>
<path d="M452.815 143.106C511.971 143.106 559.305 196.975 594.535 256.02C615.891 291.812 664 281.765 664 240.085V40C664 17.9086 646.091 0 624 0L168.194 0C158.694 0 149.228 3.4566 145.517 12.2023C123.92 63.0881 129.677 229.076 196.403 273.659C292.797 338.064 336.682 143.106 452.815 143.106Z" fill="#D04892"/>
<path d="M55.5734 525.623C1.0636 525.623 7.05873e-06 405.934 0 378.486L0 703C0 725.091 17.9086 743 40 743H268.56C258.855 743 217.64 739.291 217.64 670.171C217.64 594.385 248.485 592.906 248.485 485.696C248.485 378.486 230.935 328.208 182.142 328.208C111.679 328.208 110.083 525.623 55.5734 525.623Z" fill="#BACE00"/>
<path d="M599.089 525.645C662.758 525.645 664 405.969 664 378.524L664 703C664 725.092 646.091 743 624 743H350.314C361.65 743 409.79 739.292 409.79 670.179C409.79 594.4 373.763 592.922 373.763 485.723C373.763 378.524 394.261 328.251 451.253 328.251C533.556 328.251 535.42 525.645 599.089 525.645Z" fill="#D04892"/>
</svg>
