<?xml version="1.0" encoding="utf-8"?>
<!-- Generator: Adobe Illustrator 26.0.1, SVG Export Plug-In . SVG Version: 6.00 Build 0)  -->
<svg version="1.1" id="Calque_1" xmlns="http://www.w3.org/2000/svg" xmlns:xlink="http://www.w3.org/1999/xlink" x="0px" y="0px"
	 viewBox="0 0 101.5 98.2" style="enable-background:new 0 0 101.5 98.2;" xml:space="preserve">
<style type="text/css">
	.st0{fill:#1FBDA2;}
</style>
<path class="st0" d="M12.9,63.7c-1.6-1.6-1.6-4.2,0-5.8l35-35c1.6-1.6,4.2-1.6,5.8,0c0,0,0,0,0,0l0,0c1.6,1.6,1.6,4.2,0,5.8
	c0,0,0,0,0,0l-35,35C17.1,65.3,14.5,65.3,12.9,63.7z"/>
<path class="st0" d="M30.4,22.9c1.6,1.6,1.6,4.2,0,5.8L7,52c-1.6,1.6-4.2,1.6-5.8,0c0,0,0,0,0,0l0,0c-1.6-1.6-1.6-4.2,0-5.8
	c0,0,0,0,0,0l23.4-23.3C26.1,21.3,28.7,21.3,30.4,22.9z"/>
<path class="st0" d="M74.1,31.6L53.7,52c-1.6,1.6-4.2,1.6-5.8,0c-1.6-1.6-1.6-4.2,0-5.8l17.7-17.6c1.5-1.5,1.5-4,0-5.5l-12-12
	C52,9.5,49.6,9.5,48,11c0,0,0,0,0,0l-6,6c-1.6,1.6-4.2,1.6-5.8,0c-1.6-1.6-1.6-4.2,0-5.8c0,0,0,0,0,0l8.8-8.8
	c3.2-3.2,8.3-3.3,11.6-0.1c0,0,0.1,0.1,0.1,0.1l17.5,17.5c3.2,3.1,3.3,8.2,0.2,11.5C74.2,31.5,74.2,31.5,74.1,31.6z"/>
<path class="st0" d="M88.7,34.5c-1.6-1.6-4.2-1.6-5.8,0l-35,35c-1.6,1.6-1.6,4.2,0,5.8c0,0,0,0,0,0l0,0c1.6,1.6,4.2,1.6,5.8,0
	c0,0,0,0,0,0l35-35C90.3,38.7,90.3,36.1,88.7,34.5z"/>
<path class="st0" d="M82.7,63.7c1.6,1.6,4.2,1.6,5.8,0L100.3,52c1.6-1.6,1.6-4.2,0-5.8c0,0,0,0,0,0l0,0c-1.6-1.6-4.2-1.6-5.8,0
	c0,0,0,0,0,0L82.7,57.9C81.1,59.5,81.1,62.1,82.7,63.7z"/>
<path class="st0" d="M56.6,95.8L77,75.3c1.6-1.6,1.6-4.2,0-5.8s-4.2-1.6-5.8,0L53.5,87.2c-1.5,1.5-4,1.5-5.5,0l-12-12
	c-1.5-1.5-1.5-4,0-5.5l6-6c1.6-1.6,1.6-4.2,0-5.8c-1.6-1.6-4.2-1.6-5.8,0c0,0,0,0,0,0l-8.8,8.8c-3.2,3.2-3.3,8.3-0.1,11.6
	c0,0,0.1,0.1,0.1,0.1l17.5,17.5C48,99,53.2,99.1,56.4,96C56.5,95.9,56.5,95.8,56.6,95.8z"/>
</svg>
